<?xml version="1.0" standalone="no"?>
<!DOCTYPE svg PUBLIC "-//W3C//DTD SVG 20010904//EN"
 "http://www.w3.org/TR/2001/REC-SVG-20010904/DTD/svg10.dtd">
<svg version="1.0" xmlns="http://www.w3.org/2000/svg"
 width="300.000000pt" height="300.000000pt" viewBox="0 0 300.000000 300.000000"
 preserveAspectRatio="xMidYMid meet">
<metadata>
Created by potrace 1.10, written by Peter Selinger 2001-2011
</metadata>
<g transform="translate(0.000000,300.000000) scale(0.100000,-0.100000)"
fill="#000000" stroke="none">
<path d="M990 1921 c0 -71 -3 -136 -6 -145 -4 -10 -1 -16 8 -16 7 0 29 30 47
68 49 100 88 157 116 170 14 7 69 12 121 12 l95 0 -3 -519 c-3 -591 4 -549
-93 -570 -30 -7 -55 -17 -55 -22 0 -5 41 -9 90 -9 l90 0 0 580 0 580 -205 0
-205 0 0 -129z m90 74 c0 -4 -7 -20 -16 -37 -11 -21 -19 -27 -26 -20 -17 17
-1 62 22 62 11 0 20 -2 20 -5z"/>
<path d="M1600 2048 c0 -2 -1 -263 -3 -581 l-2 -577 93 0 c50 0 92 4 92 9 0 5
-25 15 -55 22 -97 21 -90 -21 -93 570 l-3 519 95 0 c52 0 107 -5 121 -12 28
-13 67 -70 116 -170 18 -38 37 -68 41 -68 4 0 8 65 8 145 l0 145 -205 0 c-113
0 -205 -1 -205 -2z m366 -72 c9 -39 -6 -53 -27 -25 -24 31 -24 49 1 49 12 0
22 -9 26 -24z"/>
<path d="M1468 1939 c-27 -15 -22 -56 8 -76 24 -15 29 -15 53 -2 14 8 27 24
29 36 6 42 -48 67 -90 42z m80 -36 c-2 -14 -13 -18 -43 -18 -30 0 -41 4 -43
18 -3 14 4 17 43 17 39 0 46 -3 43 -17z"/>
<path d="M1452 1773 c2 -20 9 -38 16 -41 11 -3 11 -1 1 16 -20 31 -4 37 34 13
37 -23 57 -27 57 -11 0 9 -90 60 -105 60 -4 0 -5 -17 -3 -37z"/>
<path d="M1450 1692 c0 -5 12 -13 28 -19 l27 -10 -27 -8 c-18 -4 -28 -14 -28
-26 0 -19 1 -19 38 -1 20 10 45 17 55 14 10 -2 17 2 17 12 0 11 -9 16 -28 16
-16 0 -37 7 -48 15 -21 16 -34 19 -34 7z"/>
<path d="M1490 1572 c-23 -7 -40 -33 -40 -61 0 -25 2 -26 56 -23 35 3 54 8 51
15 -2 7 -22 10 -50 8 -37 -2 -47 1 -47 13 0 21 46 31 76 17 22 -10 24 -9 15 8
-11 20 -37 30 -61 23z"/>
<path d="M1530 1432 c-25 -9 -80 -54 -80 -66 0 -7 21 -11 55 -11 30 0 55 3 55
8 0 4 -17 7 -37 8 -36 0 -37 1 -18 14 50 35 57 42 49 47 -5 3 -16 3 -24 0z"/>
<path d="M1450 1273 l0 -38 56 3 c65 5 71 27 7 27 -48 0 -61 9 -43 30 10 12
10 15 -4 15 -12 0 -16 -10 -16 -37z"/>
<path d="M1462 1178 c-7 -7 -12 -25 -12 -40 0 -27 1 -28 55 -28 42 0 55 3 55
15 0 12 -9 14 -36 11 -40 -5 -64 1 -64 16 0 6 13 8 33 4 21 -4 40 -1 52 8 26
19 13 31 -15 16 -16 -9 -25 -9 -33 -1 -14 14 -20 14 -35 -1z"/>
<path d="M1450 1020 c0 -40 3 -50 17 -50 13 0 14 3 5 12 -23 23 -12 30 38 26
41 -2 50 0 50 13 0 13 -9 15 -50 11 -50 -5 -61 3 -38 26 9 9 8 12 -5 12 -14 0
-17 -10 -17 -50z"/>
<path d="M1131 818 c1 -36 2 -39 9 -18 8 24 8 24 9 3 1 -13 5 -23 10 -23 12 0
0 52 -16 68 -11 11 -13 6 -12 -30z"/>
<path d="M1870 822 c0 -35 3 -42 20 -42 17 0 19 4 14 28 -4 15 -13 34 -20 42
-12 12 -14 8 -14 -28z"/>
<path d="M1085 839 c-4 -5 1 -19 11 -30 16 -18 16 -19 1 -13 -10 3 -17 1 -17
-5 0 -6 9 -11 20 -11 21 0 28 24 10 35 -5 3 -10 11 -10 16 0 6 5 7 10 4 6 -3
10 -1 10 4 0 14 -27 14 -35 0z"/>
<path d="M1290 816 c0 -20 5 -36 10 -36 6 0 10 13 10 29 0 17 -4 33 -10 36 -6
4 -10 -8 -10 -29z"/>
<path d="M1320 815 c0 -28 4 -35 20 -35 22 0 26 20 10 51 -16 30 -30 23 -30
-16z"/>
<path d="M1442 815 c0 -30 1 -35 7 -20 8 20 8 20 13 0 3 -11 6 -2 6 20 0 30
-1 35 -7 20 -8 -20 -8 -20 -13 0 -3 11 -6 2 -6 -20z"/>
<path d="M1840 816 c0 -20 4 -36 9 -36 12 0 11 59 -1 66 -4 3 -8 -11 -8 -30z"/>
<path d="M1180 811 c0 -21 5 -31 16 -31 11 0 14 8 12 27 -4 39 -28 42 -28 4z"/>
<path d="M1227 834 c-8 -9 -9 -74 -1 -74 15 0 35 32 32 52 -3 22 -19 33 -31
22z"/>
<path d="M1377 833 c-13 -13 -7 -53 8 -53 10 0 15 10 15 30 0 29 -9 38 -23 23z"/>
<path d="M1510 831 c0 -7 -5 -9 -12 -5 -8 5 -9 -2 -5 -24 3 -17 2 -33 -4 -36
-5 -2 -4 -3 3 -2 13 3 33 64 24 74 -3 3 -6 0 -6 -7z"/>
<path d="M1537 833 c-4 -3 -7 -22 -7 -40 0 -31 2 -33 15 -19 8 8 15 26 15 40
0 25 -10 33 -23 19z"/>
<path d="M1580 810 c0 -22 5 -30 18 -30 13 0 14 2 3 9 -11 7 -11 9 0 13 7 2
10 11 6 21 -10 27 -27 19 -27 -13z"/>
<path d="M1736 815 c2 -11 4 -24 4 -28 0 -5 5 -5 10 -2 6 3 10 18 9 33 0 24
-1 25 -8 7 -7 -16 -9 -17 -13 -5 -3 8 -4 6 -2 -5z"/>
<path d="M1775 820 c-7 -22 0 -40 16 -40 6 0 8 4 5 9 -4 5 -1 11 6 13 13 5 4
38 -11 38 -5 0 -12 -9 -16 -20z"/>
<path d="M1927 833 c-13 -13 -7 -53 8 -53 10 0 15 10 15 30 0 29 -9 38 -23 23z"/>
<path d="M1383 704 c-3 -8 -1 -20 6 -27 14 -14 15 -30 1 -22 -5 3 -10 1 -10
-4 0 -12 23 -15 33 -4 4 3 0 17 -8 30 -9 13 -11 23 -5 23 5 0 10 5 10 10 0 16
-20 12 -27 -6z"/>
<path d="M1500 678 c0 -49 5 -47 14 5 4 23 3 37 -4 37 -5 0 -10 -19 -10 -42z"/>
<path d="M1465 668 c4 -24 1 -38 -7 -41 -9 -4 -9 -6 -1 -6 15 -1 19 6 27 49 5
23 4 30 -2 21 -8 -11 -11 -11 -16 0 -3 8 -4 -2 -1 -23z"/>
<path d="M1530 670 c0 -20 5 -30 15 -30 10 0 15 10 15 30 0 20 -5 30 -15 30
-10 0 -15 -10 -15 -30z"/>
</g>
</svg>
